<svg xmlns="http://www.w3.org/2000/svg" viewBox="0 0 100 100" style="max-width:100%"><path d="M32.813 50.453C24.919 39.577 14.21 32.557 9.769 29.942a1.701 1.701 0 00-2.532 1.131C5.03 42.282 3.943 54.115 6.41 65.381c2.57 11.734 9.291 21.146 19.93 26.622-5.816-8.7-9.74-17.743-12.304-27.872-.306-1.212.955-.865 1.313-.102 3.85 8.275 8.424 15.49 14.511 22.31.453.507.923.991 1.394 1.464-2.441-8.054-4.303-20.437.395-34.257.354-1.04.747-2.07 1.164-3.093h0zm14.842 42.604c9.313-2.742 18.086-8.217 24.944-15.08 10.614-10.619 16.79-24.837 19.834-39.412a119.104 119.104 0 002.345-30.353 2.319 2.319 0 00-1.625-2.102 2.322 2.322 0 00-1.587.063C19.343 35.285 31.376 79.19 36.72 91.893c.677-.586 1.422-1.265 2.241-2.02 2.39-2.287 4.68-4.68 6.879-7.155C61.945 64.59 74.33 43.513 86.053 22.364a.627.627 0 01.856-.258c.285.16.397.512.267.806-4.26 9.696-10.437 25.48-18.393 39.27-9.657 16.737-20.89 30.804-21.128 30.875h0z" fill="currentColor" stroke="currentColor" fill-rule="evenodd"/></svg>